<svg id="Layer_2" data-name="Layer 2" xmlns="http://www.w3.org/2000/svg" viewBox="0 0 949.5765 549.0141"><defs><style>.cls-1{fill:#cecece;}.cls-1,.cls-2{stroke:#fff;stroke-miterlimit:10;stroke-width:30px;}.cls-2{fill:none;}.cls-3{fill:#7027a0;}</style></defs><title>bac</title><circle class="cls-1" cx="844.8873" cy="334.8169" r="80.9859"/><path class="cls-2" d="M69.5352,29.8873c47.4252,11.5,83.3879,30.0183,109.8592,47.8873C356.1491,197.09,327.7466,515.8221,349.8169,514.3944c2.8725-.1859,5.72-5.6281,25.3521-125.3522,4.8033-29.2921,12.4746-76.79,36.62-130.9859,10.9413-24.5588,23.55-46.6437,46.4789-53.5211,16.5448-4.9625,31.55.0666,35.2113,1.4085,9.4561,3.4656,41.7243,18.4282,63.38,130.9859,17.8183,92.6114,14.7178,179.9077,17.7519,179.8845.2926-.0023.5182-.8128.5579-1.0113,5.7074-28.49,23.2546-94.3176,81.69-143.662,10.646-8.99,25.8824-22.4483,50.7042-32.3943"/><path class="cls-3" d="M190.0171,253.441q31.5951,0,48.7246,28.5787,17.1232,28.5856,17.1274,84.5024,0,56.3422-17.1274,85.12-17.13,28.7871-48.7246,28.7842-32.4873,0-49.61-35.7754l-5.02,30.8408H87.5478V177.3683H146.313V278.5245Q163.1448,253.448,190.0171,253.441Zm-37.7984,73.4q-6.4988,12.9522-6.4966,33.5127v13.57q0,20.5665,6.4966,33.3077,6.4921,12.75,19.49,12.747,25.3938,0,25.396-41.9433v-21.793q0-42.3486-25.396-42.3545Q158.7109,313.8883,152.2187,326.8414Z"/><path class="cls-3" d="M506.4668,385.5631q14.6,9.709,14.603,31.5244v49.3858a13.1546,13.1546,0,0,0,1.5376,6.7129,4.998,4.998,0,0,0,4.6113,2.6367h6.9175v27.5693a16.4392,16.4392,0,0,1-2.9785,1.5586,41.4639,41.4639,0,0,1-6.8213,2.1572,43.1529,43.1529,0,0,1-10.1836,1.0791q-11.1466,0-18.3506-4.1953a21.7271,21.7271,0,0,1-9.8955-11.6269,60.0965,60.0965,0,0,1-16.3325,11.5068,48.5405,48.5405,0,0,1-21.1367,4.3154q-35.7393,0-35.7393-35.48,0-18.4586,7.9741-28.169,7.971-9.71,22.9615-13.3056,14.9881-3.5962,39.1987-3.5957V421.403q0-7.4283-4.1314-11.2676a15.0684,15.0684,0,0,0-10.664-3.836,19.37,19.37,0,0,0-10.28,2.6377q-4.3234,2.64-4.3232,8.3907v.959H415.7724a22.3679,22.3679,0,0,1-.1923-3.3565q0-17.981,13.7387-28.5283,13.7358-10.5469,39.2945-10.5488Q491.86,375.8532,506.4668,385.5631Zm-47.7491,69.043q-7.7818,4.4385-7.7822,11.8672,0,11.99,13.0664,11.9863a19.2144,19.2144,0,0,0,13.1621-5.0342,16.0148,16.0148,0,0,0,5.6685-12.4658V450.1715Q466.4979,450.1715,458.7177,454.6061Z"/></svg>