<svg id="Layer_2" data-name="Layer 2" xmlns="http://www.w3.org/2000/svg" viewBox="0 0 823.148 700.0851"><defs><style>.cls-1{fill:#cecece;stroke:#fff;stroke-miterlimit:10;stroke-width:30px;}.cls-2{fill:#3dbd5d;}</style></defs><title>bcc</title><path class="cls-1" d="M769.8394,613.947c-24.4771-15-106.8255-61.18-210.5353-42.2536A285.2416,285.2416,0,0,0,454.4028,613.947a12.291,12.291,0,0,1-8.475-3.5251,11.9631,11.9631,0,0,1-3.525-8.4749V387.9188a12.0353,12.0353,0,0,1,12-12,259.8451,259.8451,0,0,0,64.0563,32.3944c114.3778,38.9341,221.5725-15.8415,251.38-32.3944a12.2892,12.2892,0,0,1,8.4751,3.525,11.963,11.963,0,0,1,3.5249,8.475V601.947A12.0353,12.0353,0,0,1,769.8394,613.947Z"/><rect class="cls-1" x="33.3042" y="319.3977" width="598.5915" height="357.7465" rx="59.1549"/><circle class="cls-1" cx="188.7971" cy="210.2427" r="106.338"/><circle class="cls-1" cx="441.614" cy="170.1019" r="142.2535"/><path class="cls-2" d="M204.2271,172.96q16.7645,0,25.8535,13.125,9.0858,13.1271,9.0884,38.8071,0,25.875-9.0884,39.0908-9.0885,13.221-25.8535,13.2193-17.2383,0-26.3242-16.4292l-2.6636,14.1631H149.8556V138.0237h31.1811v46.4556Q189.9686,172.9628,204.2271,172.96Zm-20.0566,33.709q-3.4482,5.9487-3.4468,15.3906v6.2319q0,9.4453,3.4468,15.2964a11.2388,11.2388,0,0,0,10.3418,5.854q13.4736,0,13.4751-19.2622V220.1712q0-19.4479-13.4751-19.4512A11.2076,11.2076,0,0,0,184.1705,206.6688Z"/><path class="cls-2" d="M486.6182,94.5955q18.5553,18.4834,18.5586,56.4488H460.6817q0-29.973-22.5937-29.9727-22.5967,0-22.5938,37.6323v18.9824q0,37.3023,23.5156,37.2994,23.5167,0,23.5167-30.6387h42.65q0,38.3013-18.5586,56.9482-18.561,18.6549-48.53,18.65-32.048,0-50.2593-23.3125-18.2147-23.3064-18.2129-68.604,0-45.2863,18.2129-68.604,18.21-23.3072,50.2593-23.312Q468.0558,76.1126,486.6182,94.5955Z"/></svg>