<svg id="Layer_2" data-name="Layer 2" xmlns="http://www.w3.org/2000/svg" viewBox="0 0 722.0416 675.5745"><defs><style>.cls-1{fill:#cecece;stroke:#fff;stroke-miterlimit:10;stroke-width:30px;}.cls-2{fill:#ffeb00;}</style></defs><title>bux</title><path class="cls-1" d="M483.4727,64.9275h-236.78a77.9485,77.9485,0,0,0-67.5055,38.9743L60.7974,308.9592a77.9487,77.9487,0,0,0,0,77.9487l118.39,205.0573A77.9486,77.9486,0,0,0,246.6929,630.94h236.78a77.9488,77.9488,0,0,0,67.5056-38.9744l118.39-205.0573a77.9487,77.9487,0,0,0,0-77.9487l-118.39-205.0574A77.9487,77.9487,0,0,0,483.4727,64.9275Z"/><path class="cls-2" d="M251.2351,317.1923q17.6456,0,27.2109,13.9,9.5625,13.9035,9.5645,41.1,0,27.4028-9.5645,41.4-9.5684,14.0017-27.2109,14-18.1436,0-27.7051-17.4l-2.8027,15H194.0105v-145h32.8184v49.2Q236.2273,317.1954,251.2351,317.1923Zm-21.1094,35.7q-3.6268,6.3-3.6269,16.3v6.6q0,10.0026,3.6269,16.2a11.815,11.815,0,0,0,10.8848,6.2q14.1826,0,14.1816-20.4v-10.6q0-20.5972-14.1816-20.6A11.7836,11.7836,0,0,0,230.1257,352.8925Z"/><path class="cls-2" d="M392.7371,431.2919l-2.2393-22.74q-5.3407,12.2249-14.0391,19.1875-8.7,6.9609-18.3457,6.9638-15.85,0-23.7705-14.497-7.9263-14.4969-7.9238-41.7852V281.206H360.697v90.3925q0,9.6673,3.0147,15.4917,3.0117,5.8295,8.5263,5.8277,6.3722,0,10.336-6.8223,3.9609-6.8225,3.9619-16.771V281.206h34.2793V431.2919Z"/><path class="cls-2" d="M545.3542,431.2919H505.3914l-17.2256-47.186h-.69l-17.3974,47.186H432.0105l34.9678-79.5908L435.4548,281.206h40.3086l14.4688,39.7954h.6894l14.47-39.7954h37.8964l-32.04,71.916Z"/></svg>