<svg id="Layer_3" data-name="Layer 3" xmlns="http://www.w3.org/2000/svg" viewBox="0 0 638.0282 449.2958"><defs><style>.cls-1{fill:#cecece;}.cls-1,.cls-2{stroke:#fff;stroke-linecap:round;stroke-miterlimit:10;stroke-width:30px;}.cls-2{fill:none;}.cls-3{fill:#317773;}</style></defs><title>bwc</title><line class="cls-1" x1="389.3239" y1="19.7183" x2="225.9437" y2="423.9437"/><polyline class="cls-2" points="477.465 87.324 608.451 221.662 477.465 347.887"/><polyline class="cls-2" points="167.972 87.324 36.986 221.662 167.972 347.887"/><path class="cls-3" d="M223.6834,172.53q19.2042,0,29.6158,16.9976,10.4076,17.001,10.41,50.2588,0,33.5083-10.41,50.625-10.4123,17.1211-29.6158,17.1191-19.7468,0-30.1543-21.2773l-3.0512,18.3428H161.4v-177.31H197.119v60.1631Q207.3495,172.5343,223.6834,172.53Zm-22.9746,43.6553q-3.9507,7.7037-3.9492,19.9321v8.07q0,12.2328,3.9492,19.81,3.9456,7.5836,11.8462,7.5811,15.4344,0,15.436-24.9454V233.6725q0-25.1873-15.436-25.1909Q204.6544,208.4816,200.7088,216.1857Z"/><path class="cls-3" d="M419.91,326.155l-10.4146-55.8623h-.5078L398.4461,326.155H373.807L349.2952,225.83h27.1792l10.16,59.2827h.8892L398.0653,225.83h25.1464l10.1607,59.2827h.8892L444.5487,225.83h24.6391L444.5487,326.155Z"/></svg>