<svg xmlns="http://www.w3.org/2000/svg" viewBox="0 0 1024.3404 1019.234"><defs><style>.cls-1{fill:#f45844;}.cls-2{fill:none;stroke:#cecece;stroke-miterlimit:10;stroke-width:90px;}.cls-3{fill:#cecece;}</style></defs><title>fbr</title><g id="Layer_2" data-name="Layer 2"><rect class="cls-1" x="-48.5106" y="-13.0213" width="1121.3617" height="1080"/></g><g id="Layer_3" data-name="Layer 3"><circle class="cls-2" cx="514.7234" cy="509.617" r="448.5304"/><path class="cls-3" d="M645.4468,232.8511v98.0425H572.9362a24.531,24.531,0,0,0-13.501,5.8248c-3.9531,3.6009-6.9674,9.3381-7.9459,31.9625A279.3489,279.3489,0,0,0,552,401.3617l93.4468,1.0213-14.298,107.234H553.5319V788.4256h-112.34V510.6383H384V400.34l52.0187,1.8578c.7478-10.0893,1.9124-26.4492,3.13-46.7939,2.0995-35.075,1.9585-41.9182,6.3148-53.5445,7.8517-20.9545,21.5235-33.9888,28.4087-40.413a119.3646,119.3646,0,0,1,41.3653-25.28c15.5454-5.4105,26.0063-5.1249,69.9538-4.3372C594.4155,231.9951,615.3336,232.3657,645.4468,232.8511Z"/></g></svg>