<svg id="Layer_2" data-name="Layer 2" xmlns="http://www.w3.org/2000/svg" viewBox="0 0 853.7856 739.9215"><defs><style>.cls-1{fill:#cecece;stroke:#3dbd5d;stroke-miterlimit:10;stroke-width:30px;}</style></defs><title>greycam</title><path class="cls-1" d="M783.5442,638.3018c-24.4771-15-106.8255-61.18-210.5353-42.2536a285.2416,285.2416,0,0,0-104.9013,42.2536,12.291,12.291,0,0,1-8.475-3.5251,11.9627,11.9627,0,0,1-3.525-8.4749V412.2736a12.0353,12.0353,0,0,1,12-12,259.8451,259.8451,0,0,0,64.0563,32.3944c114.3778,38.9341,221.5725-15.8414,251.38-32.3944a12.29,12.29,0,0,1,8.4751,3.525,11.963,11.963,0,0,1,3.5249,8.475V626.3018A12.0353,12.0353,0,0,1,783.5442,638.3018Z"/><rect class="cls-1" x="47.009" y="343.7525" width="598.5915" height="357.7465" rx="59.1549"/><circle class="cls-1" cx="202.5019" cy="234.5975" r="106.338"/><circle class="cls-1" cx="455.3188" cy="194.4567" r="142.2535"/></svg>