<svg xmlns="http://www.w3.org/2000/svg" viewBox="0 0 1024.3276 1019.2252"><defs><style>.cls-1{fill:#cecece;}.cls-2{fill:none;stroke:#f45844;stroke-linecap:round;stroke-miterlimit:10;stroke-width:90px;}.cls-3{fill:#f45844;}</style></defs><title>linkedin</title><g id="Layer_2" data-name="Layer 2"><rect class="cls-1" x="-43.449" y="-30.3874" width="1121.3617" height="1080"/></g><g id="Layer_3" data-name="Layer 3"><circle class="cls-2" cx="517.2318" cy="509.6126" r="448.5304"/><rect class="cls-3" x="267.3378" y="428.8085" width="107.234" height="332.4255"/><path class="cls-3" d="M438.9123,428.8085H544.6144v52.0851A123.0394,123.0394,0,0,1,589.04,434.9362c25.7493-15.3276,49.7229-16.9956,55.149-16.8511,42.6465,1.1357,72.6262,22.1121,81.1914,29.1064,42.4536,34.6676,47.6252,84.7314,48.4651,94.984q1.044,109.5293,2.0881,219.0586H665.6357Q664.89,662.04,664.144,562.845c-.4339-3.8071-3.8614-30.0561-26.8487-44.4195A56.9845,56.9845,0,0,0,607.423,510a62.7542,62.7542,0,0,0-32.17,10.7234c-20.0625,13.7394-25.0156,34.87-26.0425,39.83V761.2341H438.9123Z"/><ellipse class="cls-3" cx="319.051" cy="328.4526" rx="60.5208" ry="54.3984"/></g></svg>