<svg id="Layer_2" data-name="Layer 2" xmlns="http://www.w3.org/2000/svg" viewBox="0 0 973.275 605.113"><defs><style>.cls-1,.cls-2{fill:none;stroke:#7027a0;stroke-miterlimit:10;stroke-width:30px;}.cls-2{stroke-linecap:round;}</style></defs><title>purpan</title><circle class="cls-1" cx="842.5532" cy="364.5957" r="80.9859"/><path class="cls-2" d="M67.2011,59.6662c47.4252,11.5,83.3879,30.0182,109.8591,47.8873,176.7547,119.3158,148.3523,438.0474,170.4226,436.62,2.8725-.1859,5.72-5.6281,25.3521-125.3521,4.8032-29.2922,12.4746-76.79,36.62-130.9859,10.9413-24.5589,23.55-46.6438,46.4789-53.5211,16.5447-4.9626,31.55.0665,35.2112,1.4084,9.4561,3.4657,41.7243,18.4282,63.38,130.9859,17.8184,92.6115,14.7179,179.9077,17.7519,179.8845.2926-.0022.5183-.8128.558-1.0113,5.7073-28.49,23.2546-94.3175,81.69-143.6619,10.646-8.99,25.8824-22.4483,50.7042-32.3944"/></svg>